<mxfile host="Electron" modified="2024-03-06T22:46:10.389Z" agent="Mozilla/5.0 (X11; Linux x86_64) AppleWebKit/537.36 (KHTML, like Gecko) draw.io/23.1.5 Chrome/120.0.6099.109 Electron/28.1.0 Safari/537.36" etag="RpQDmyK0-a5RcNizGdXX" version="23.1.5" type="device">
  <diagram name="Page-1" id="scoB1WjYKybkdFovzfeb">
    <mxGraphModel dx="3500" dy="3537" grid="1" gridSize="10" guides="1" tooltips="1" connect="1" arrows="1" fold="1" page="1" pageScale="1" pageWidth="850" pageHeight="1100" math="0" shadow="0">
      <root>
        <mxCell id="0" />
        <mxCell id="1" parent="0" />
        <mxCell id="0cBxrC192xeV2Vr6zIB5-2" value="" style="verticalLabelPosition=bottom;shadow=0;dashed=0;align=center;html=1;verticalAlign=top;shape=mxgraph.electrical.radio.aerial_-_antenna_2;" parent="1" vertex="1">
          <mxGeometry x="670" y="-580" width="79" height="100" as="geometry" />
        </mxCell>
        <mxCell id="0cBxrC192xeV2Vr6zIB5-5" value="" style="endArrow=none;html=1;rounded=0;entryX=0.5;entryY=1;entryDx=0;entryDy=0;entryPerimeter=0;" parent="1" target="0cBxrC192xeV2Vr6zIB5-2" edge="1">
          <mxGeometry width="50" height="50" relative="1" as="geometry">
            <mxPoint x="390" y="-480" as="sourcePoint" />
            <mxPoint x="450" y="-550" as="targetPoint" />
          </mxGeometry>
        </mxCell>
        <mxCell id="0cBxrC192xeV2Vr6zIB5-6" value="" style="rounded=0;whiteSpace=wrap;html=1;" parent="1" vertex="1">
          <mxGeometry x="240" y="-510" width="180" height="60" as="geometry" />
        </mxCell>
        <mxCell id="0cBxrC192xeV2Vr6zIB5-8" value="&lt;pre style=&quot;margin-top: 0px; margin-bottom: 0px; font-size: 16px;&quot;&gt;&lt;pre style=&quot;margin-top: 0px; margin-bottom: 0px;&quot;&gt;&lt;span style=&quot;background-color: initial; font-family: Helvetica; white-space-collapse: collapse;&quot;&gt;Spectrum Analyzer&lt;/span&gt;&lt;br&gt;&lt;/pre&gt;&lt;/pre&gt;" style="text;html=1;align=center;verticalAlign=middle;resizable=0;points=[];autosize=1;strokeColor=none;fillColor=none;" parent="1" vertex="1">
          <mxGeometry x="250" y="-495" width="160" height="30" as="geometry" />
        </mxCell>
        <mxCell id="0cBxrC192xeV2Vr6zIB5-10" value="&lt;pre style=&quot;margin-top: 0px; margin-bottom: 0px; font-size: 16px;&quot;&gt;&lt;font style=&quot;font-size: 16px;&quot;&gt;OmniLOG&lt;/font&gt;&lt;/pre&gt;&lt;pre style=&quot;margin-top: 0px; margin-bottom: 0px; font-size: 16px;&quot;&gt;&lt;font style=&quot;font-size: 16px;&quot;&gt;30800&lt;/font&gt;&lt;/pre&gt;" style="text;html=1;align=center;verticalAlign=middle;resizable=0;points=[];autosize=1;strokeColor=none;fillColor=none;" parent="1" vertex="1">
          <mxGeometry x="664.5" y="-630" width="90" height="50" as="geometry" />
        </mxCell>
        <mxCell id="vKOvaUIium4uuMvGmsLT-1" value="" style="rounded=0;whiteSpace=wrap;html=1;" vertex="1" parent="1">
          <mxGeometry x="460" y="-510" width="180" height="60" as="geometry" />
        </mxCell>
        <mxCell id="vKOvaUIium4uuMvGmsLT-4" value="&lt;font style=&quot;font-size: 16px;&quot;&gt;Aaronia UBBV X 17823&lt;/font&gt;" style="text;html=1;align=center;verticalAlign=middle;resizable=0;points=[];autosize=1;strokeColor=none;fillColor=none;" vertex="1" parent="1">
          <mxGeometry x="460" y="-440" width="190" height="30" as="geometry" />
        </mxCell>
        <mxCell id="vKOvaUIium4uuMvGmsLT-5" value="&lt;font style=&quot;font-size: 16px;&quot;&gt;RF Preamplifier&lt;/font&gt;" style="text;html=1;align=center;verticalAlign=middle;resizable=0;points=[];autosize=1;strokeColor=none;fillColor=none;" vertex="1" parent="1">
          <mxGeometry x="485" y="-495" width="130" height="30" as="geometry" />
        </mxCell>
        <mxCell id="vKOvaUIium4uuMvGmsLT-8" value="&lt;font style=&quot;font-size: 16px;&quot;&gt;Keysight N9938A&lt;/font&gt;" style="text;html=1;align=center;verticalAlign=middle;resizable=0;points=[];autosize=1;strokeColor=none;fillColor=none;" vertex="1" parent="1">
          <mxGeometry x="255" y="-440" width="150" height="30" as="geometry" />
        </mxCell>
      </root>
    </mxGraphModel>
  </diagram>
</mxfile>
